<svg xmlns="http://www.w3.org/2000/svg" viewBox="0 0 44 44" role="img" aria-label="Burnbar">
  <!-- Glyph spans (152,146)-(872,980) in path space (center 512,563). The transform
       centers it in the 44x44 canvas at ~25px tall (~57%), leaving menu-bar padding
       so the flame matches the size of neighboring tray icons. -->
  <path fill="#000000" fill-rule="evenodd" transform="translate(6.64 5.11) scale(0.03)" d="M512 980 C 326 980 152 864 152 690 C 152 548 252 458 346 388 C 410 340 458 296 476 232 C 486 280 478 322 450 364 C 514 322 548 248 524 146 C 522 128 544 122 552 136 C 606 216 640 272 700 348 C 772 440 872 542 872 700 C 872 866 700 980 512 980 Z M512 838 C 602 838 676 778 676 696 C 676 626 632 570 580 536 C 596 614 558 668 512 700 C 470 672 446 620 458 540 C 406 574 348 628 348 698 C 348 778 422 838 512 838 Z"/>
</svg>
