<svg width="44" height="44" viewBox="0 0 44 44" fill="none" xmlns="http://www.w3.org/2000/svg">
<path fill-rule="evenodd" clip-rule="evenodd" d="M31.0667 17.1627C28.9976 14.4165 26.4032 11.4054 23.3869 6.52353C23.1446 6.13136 22.7357 5.86336 22.3414 6.07367C21.9472 6.28398 22.065 6.82686 22.1483 7.24015C22.7391 10.171 22.0242 12.8759 19.4508 14.6545C20.0838 13.552 20.6068 12.3117 20.2215 9.94129C19.8361 11.595 18.5526 12.953 17.4964 13.8827C16.0474 15.1583 14.3741 16.1603 12.3766 17.9344C9.79179 20.2303 8 23.1139 8 27.0852C8 34.2101 15.2225 38 21.7079 38C28.1933 38 34.9961 34.9152 34.9961 27.8516C34.9961 22.7186 33.56 20.472 31.0667 17.1627ZM21.5978 33C18.7076 33.0276 15.4859 31.0995 15.4859 27.2958C15.541 24.1261 18.8452 22.0413 19.5884 21.5176C19.3503 23.9891 19.7255 25.9927 21.5978 27.3608C23.519 26.0136 24.3735 24.1247 24.0751 21.3246C24.8458 21.7656 27.4528 23.6528 27.5078 27.043C27.5078 30.4056 24.7357 33 21.5978 33Z" fill="black"/>
</svg>
